<?xml version="1.0" encoding="UTF-8"?>
<svg version="1.1" xmlns="http://www.w3.org/2000/svg" width="1254" height="1254">
<path d="M0 0 C413.82 0 827.64 0 1254 0 C1254 413.82 1254 827.64 1254 1254 C840.18 1254 426.36 1254 0 1254 C0 840.18 0 426.36 0 0 Z " fill="#FDFDFD" transform="translate(0,0)"/>
<path d="M0 0 C1.00316254 -0.00100708 2.00632507 -0.00201416 3.03988647 -0.00305176 C17.37215115 0.00667269 31.34548282 0.43316027 45.51318359 2.78808594 C48.54141445 3.28777308 51.57534124 3.72748897 54.61328125 4.1640625 C64.72070639 5.66823592 74.24456416 7.50010941 83.85546875 11.02734375 C87.59565173 12.35014293 91.34352596 13.3492369 95.1875 14.3125 C100.11684883 15.58839175 104.60214223 17.06067576 109.1796875 19.2734375 C111.4768533 20.32525334 113.78670613 21.08941913 116.1875 21.875 C125.00280316 25.01891931 133.11998295 29.77631072 141.3125 34.25 C142.03195801 34.63881348 142.75141602 35.02762695 143.49267578 35.42822266 C205.36037743 68.91865027 257.60773889 125.47156101 281.3125 192.1875 C283.24963094 197.61676346 285.19889596 203.02372859 287.3828125 208.359375 C293.35290034 223.17538568 296.10936999 238.80057671 298.625 254.5 C298.75396667 255.30418365 298.88293335 256.10836731 299.01580811 256.93692017 C299.38732958 259.27480954 299.75228078 261.61358937 300.11328125 263.953125 C300.2738224 264.98505226 300.2738224 264.98505226 300.43760681 266.03782654 C301.73411926 274.64257801 302.46757579 283.15641406 302.48046875 291.859375 C302.48470352 292.74036362 302.48893829 293.62135223 302.49330139 294.52903748 C302.50310759 297.35274127 302.50323639 300.17628234 302.5 303 C302.49909363 304.4484581 302.49909363 304.4484581 302.49816895 305.92617798 C302.47455168 319.79167075 302.28713924 333.50264746 300.3125 347.25 C300.18359375 348.18650391 300.0546875 349.12300781 299.921875 350.08789062 C297.80195537 365.11380244 294.46204084 379.66350106 290.3125 394.25 C290.05678223 395.15862793 289.80106445 396.06725586 289.53759766 397.00341797 C286.69996301 407.02082748 283.65343056 416.7637492 279.3125 426.25 C278.87808594 427.21421875 278.44367187 428.1784375 277.99609375 429.171875 C277.17836075 430.97821059 276.35505806 432.78204715 275.5234375 434.58203125 C274.66240846 436.47907265 273.84083034 438.39423566 273.046875 440.3203125 C266.64988146 455.2986883 258.54495698 469.84286682 249.3125 483.25 C248.4065703 484.59699647 247.50167682 485.94469025 246.59765625 487.29296875 C241.48007737 494.88207557 236.20397596 502.23528937 230.3125 509.25 C229.68625732 510.00144287 229.68625732 510.00144287 229.04736328 510.76806641 C212.50238999 530.61369336 212.50238999 530.61369336 204.25390625 537.5546875 C202.27953668 539.27878487 200.49575596 541.10344279 198.6875 543 C193.58970786 548.16762491 187.84345446 552.47654085 182.08984375 556.87841797 C180.43982205 558.15174516 178.81073471 559.44670413 177.1875 560.75390625 C163.2376138 571.83908368 147.86763925 580.74453404 132.22363281 589.20410156 C130.57030829 590.10891023 128.93557833 591.04754164 127.3046875 591.9921875 C120.34068239 596.00428597 113.06359872 598.7931433 105.51220703 601.46142578 C103.31854903 602.24783148 101.14190229 603.07120908 98.96484375 603.90234375 C33.48672564 628.43561553 -41.91611214 627.97086958 -106.6875 601.25 C-107.46279053 600.94151123 -108.23808105 600.63302246 -109.03686523 600.31518555 C-131.45710142 591.38962712 -152.20951336 579.46341093 -171.6875 565.25 C-172.29480957 564.8070459 -172.90211914 564.3640918 -173.52783203 563.90771484 C-177.32317552 561.11301071 -181.02024191 558.21183647 -184.6875 555.25 C-185.70972656 554.43273437 -186.73195313 553.61546875 -187.78515625 552.7734375 C-195.79975024 546.21251836 -203.16251057 538.98465744 -210.5 531.6875 C-210.98805115 531.20471588 -211.47610229 530.72193176 -211.97894287 530.22451782 C-218.67689191 523.58252362 -224.84573268 516.65992677 -230.6875 509.25 C-231.16372803 508.65872314 -231.63995605 508.06744629 -232.13061523 507.45825195 C-253.89845479 480.39995597 -270.71188352 449.33175467 -282.72802734 416.83056641 C-283.57296114 414.55806 -284.44590017 412.29962004 -285.33203125 410.04296875 C-313.58027725 336.49886127 -305.38734308 252.25995693 -274.390625 181.28027344 C-262.34359901 154.21982274 -246.23469967 129.4727423 -226.6875 107.25 C-226.04167969 106.50492187 -225.39585937 105.75984375 -224.73046875 104.9921875 C-223.62012576 103.71391453 -222.50466638 102.44005764 -221.3828125 101.171875 C-220.0957322 99.71278858 -218.82203875 98.2418803 -217.5546875 96.765625 C-216.83539063 95.93546875 -216.11609375 95.1053125 -215.375 94.25 C-214.71886719 93.486875 -214.06273437 92.72375 -213.38671875 91.9375 C-211.6875 90.25 -211.6875 90.25 -209.6875 90.25 C-209.1925 88.765 -209.1925 88.765 -208.6875 87.25 C-207.26171875 85.8125 -207.26171875 85.8125 -205.375 84.25 C-202.34027753 81.68506553 -199.39267587 79.05901834 -196.49658203 76.33813477 C-189.90782627 70.17179026 -182.96065336 64.58823868 -175.6875 59.25 C-175.05215332 58.77949219 -174.41680664 58.30898438 -173.76220703 57.82421875 C-162.85919909 49.78679592 -151.56205697 42.75799362 -139.6875 36.25 C-138.81480469 35.77111328 -137.94210937 35.29222656 -137.04296875 34.79882812 C-126.16851722 28.87374708 -115.3482487 23.46210116 -103.6875 19.25 C-102.95273437 18.97736328 -102.21796875 18.70472656 -101.4609375 18.42382812 C-80.97518771 10.83463534 -60.62090146 5.64969022 -38.97387695 2.63549805 C-36.5343996 2.28457685 -36.5343996 2.28457685 -33.6875 1.25 C-22.58653294 -0.33423587 -11.187161 0.00779409 0 0 Z " fill="#13A67C" transform="translate(650.6875,285.75)"/>
<path d="M0 0 C1.04414062 0.48082031 2.08828125 0.96164062 3.1640625 1.45703125 C14.43901905 6.79451068 24.68762184 13.66934845 34 22 C34 22.66 34 23.32 34 24 C34.55171875 24.21011719 35.1034375 24.42023438 35.671875 24.63671875 C38.83112297 26.48668107 40.93764576 29.03281107 43.25 31.8125 C43.73090088 32.38564941 44.21180176 32.95879883 44.70727539 33.54931641 C49.45206542 39.33456829 53.27361555 45.51201948 57 52 C57.61294922 52.99966797 57.61294922 52.99966797 58.23828125 54.01953125 C64.49662819 64.33734648 68.86972591 77.01909464 70 89 C70.33 89.33 70.66 89.66 71 90 C72.16492927 96.60882256 72.18611744 103.10495429 72.18530273 109.79614258 C72.1874832 111.79707947 72.20598312 113.79797674 72.22460938 115.79882812 C72.23560453 123.13259744 71.85779715 129.89858405 70 137 C69.81767822 137.72550049 69.63535645 138.45100098 69.44750977 139.19848633 C67.15517443 147.96764201 64.37754426 156.03703854 60 164 C59.27068939 165.58326704 58.54152782 167.16660273 57.8125 168.75 C45.24814957 193.72213575 20.40934958 216.79192646 -6.21875 225.74609375 C-10.72572297 227.13574375 -15.26813514 228.37873203 -19.85400391 229.48022461 C-21.24803187 229.81786801 -22.63655747 230.1794411 -24.01708984 230.56860352 C-31.25850577 232.47080852 -38.55753396 232.35505187 -46 232.3125 C-46.69041382 232.31001251 -47.38082764 232.30752502 -48.09216309 232.30496216 C-75.88386148 232.1499195 -100.63503156 224.27319193 -122 206 C-122.80824219 205.31292969 -123.61648438 204.62585938 -124.44921875 203.91796875 C-142.26321031 188.34095622 -155.82727487 168.70616747 -161.95703125 145.75 C-162.87657951 142.13226685 -162.87657951 142.13226685 -164.12890625 139.33203125 C-165.13551052 136.63722072 -165.20139901 134.55246269 -165.125 131.6875 C-165.10695313 130.80449219 -165.08890625 129.92148437 -165.0703125 129.01171875 C-165.04710937 128.34785156 -165.02390625 127.68398438 -165 127 C-165.66 127 -166.32 127 -167 127 C-167.83298349 93.40513489 -167.83298349 93.40513489 -163 78 C-162.71125 77.02289062 -162.4225 76.04578125 -162.125 75.0390625 C-151.51765778 42.74349379 -127.85033292 16.03830462 -97.76171875 0.78515625 C-68.35883836 -13.52571176 -29.5979853 -14.79899265 0 0 Z " fill="#FCFDFD" transform="translate(696,481)"/>
<path d="M0 0 C2.06525349 3.09788023 2.62281153 5.08189007 3.40234375 8.6796875 C3.77613159 10.39961914 3.77613159 10.39961914 4.1574707 12.15429688 C4.41488037 13.38212891 4.67229004 14.60996094 4.9375 15.875 C5.20328857 17.13119141 5.46907715 18.38738281 5.74291992 19.68164062 C9.58550005 38.22406345 12.09523965 56.75525875 12.23828125 75.7109375 C12.24793915 76.7901799 12.25759705 77.8694223 12.26754761 78.98136902 C12.29220963 82.44594811 12.3049183 85.91034282 12.3125 89.375 C12.31545074 90.55552948 12.31840149 91.73605896 12.32144165 92.95236206 C12.3337536 114.59510981 11.13629258 135.25482969 5.6940918 156.29125977 C5.12152 158.52575996 4.59526643 160.7564969 4.11328125 163.01171875 C2.19271492 171.82758664 -0.2638168 180.40173821 -3 189 C-3.33217529 190.05018311 -3.66435059 191.10036621 -4.0065918 192.18237305 C-5.73999097 197.53507901 -7.64271667 202.68961074 -10.00390625 207.79614258 C-11.0603393 210.13350069 -12.00410815 212.49771356 -12.9375 214.88671875 C-22.5678596 239.18276702 -35.77468427 261.8250421 -51 283 C-51.76594482 284.06541016 -51.76594482 284.06541016 -52.54736328 285.15234375 C-66.80976495 304.84738637 -83.26836331 325.2612075 -102.375 340.4375 C-105.71073938 343.11599518 -108.93558478 345.83195535 -112.0625 348.75 C-138.18319065 372.17015579 -171.54044374 390.2277406 -204 403 C-205.1907312 403.4791687 -205.1907312 403.4791687 -206.40551758 403.96801758 C-236.29626579 415.98840116 -267.95432892 422.91762275 -300 426 C-300.70817871 426.07057617 -301.41635742 426.14115234 -302.14599609 426.21386719 C-307.09733104 426.68025259 -312.03090641 426.88481346 -317 427 C-318.14549316 427.02723145 -319.29098633 427.05446289 -320.47119141 427.08251953 C-349.50984202 427.66176247 -377.52771795 424.95445234 -406 419 C-406.91652344 418.81211914 -407.83304688 418.62423828 -408.77734375 418.43066406 C-429.50780551 414.1105344 -451.19526283 407.89723009 -470 398 C-470 397.67 -470 397.34 -470 397 C-465.31193445 397.55184628 -460.67402704 398.20039559 -456.0284729 399.03497314 C-437.34079605 402.33643519 -418.83676345 403.40605449 -399.875 403.375 C-398.79126099 403.37545319 -397.70752197 403.37590637 -396.59094238 403.37637329 C-382.55509412 403.35923629 -368.68528722 402.92008671 -354.75 401.1875 C-354.08337341 401.10481873 -353.41674683 401.02213745 -352.72991943 400.93695068 C-344.75133566 399.91386315 -336.91745915 398.42371852 -329.06738281 396.68041992 C-326.66347283 396.14717437 -324.26329874 395.64593666 -321.84375 395.19140625 C-314.1059919 393.73605689 -306.61414173 391.86288977 -299.07421875 389.60644531 C-296.68130795 388.90682309 -294.27931949 388.24527181 -291.875 387.5859375 C-283.3447482 385.23315906 -274.95468857 382.91263505 -266.86328125 379.2734375 C-264.38503884 378.1712451 -261.89809984 377.160995 -259.375 376.16796875 C-220.5918539 360.73668451 -184.83715423 339.27640171 -152.83789062 312.52929688 C-151.14868528 311.12372006 -149.44438235 309.73949082 -147.734375 308.359375 C-139.53987498 301.64597339 -132.04814322 294.23182805 -124.5625 286.75 C-124.04171875 286.23021576 -123.5209375 285.71043152 -122.984375 285.17489624 C-117.10753625 279.29678213 -111.37326503 273.348057 -106 267 C-105.07589109 265.93197119 -104.15142961 264.86424731 -103.2265625 263.796875 C-97.18300334 256.74472639 -91.44345852 249.52990006 -86 242 C-85.55043945 241.3817334 -85.10087891 240.7634668 -84.63769531 240.12646484 C-68.09229573 217.30232696 -53.74983504 193.19853693 -41.5 167.8125 C-41.06267548 166.90748749 -41.06267548 166.90748749 -40.61651611 165.98419189 C-36.81580394 158.0906955 -33.28153308 150.12244262 -30 142 C-29.67161133 141.19264404 -29.34322266 140.38528809 -29.00488281 139.5534668 C-24.24001068 127.75942782 -24.24001068 127.75942782 -20.703125 115.5546875 C-20 113 -20 113 -18.58642578 109.32470703 C-17.09106639 105.36436043 -15.93408202 101.35648385 -14.9140625 97.25 C-14.64081398 96.16586571 -14.64081398 96.16586571 -14.36204529 95.05982971 C-13.77449828 92.70856159 -13.19768273 90.35493114 -12.625 88 C-12.42679657 87.18554413 -12.22859314 86.37108826 -12.02438354 85.5319519 C-5.91307576 60.21728972 -2.40743242 34.93975508 -1.21777344 8.92724609 C-0.99291373 5.9047485 -0.54251093 2.98048183 0 0 Z " fill="#12966F" transform="translate(1003,560)"/>
<path d="M0 0 C0.75587402 0.06944824 1.51174805 0.13889648 2.29052734 0.21044922 C23.37435314 2.16976431 44.84505292 7.60468025 65 14 C65 14.33 65 14.66 65 15 C64.30684692 14.99111755 63.61369385 14.98223511 62.89953613 14.9730835 C17.26342115 14.04006808 17.26342115 14.04006808 -28 19 C-29.15274414 19.19787109 -30.30548828 19.39574219 -31.49316406 19.59960938 C-70.34908059 26.27172841 -107.26351017 38.83432461 -142.21875 57.07470703 C-143.98187316 57.99058378 -145.75655076 58.88410464 -147.53125 59.77734375 C-168.93001363 70.6857721 -188.69148329 84.72259185 -207.39648438 99.71679688 C-208.85759802 100.88604372 -210.3268157 102.04514533 -211.796875 103.203125 C-223.5528162 112.5939656 -234.25604761 123.16560499 -244.92684937 133.75161743 C-246.33112701 135.14399868 -247.73935447 136.53239286 -249.14770508 137.9206543 C-255.2032092 143.96845911 -260.6642546 150.31479166 -266 157 C-266.8750787 158.03930377 -267.75518914 159.07443755 -268.64453125 160.1015625 C-275.70566718 168.32047027 -281.89188592 177.06073162 -288 186 C-288.51385254 186.75152344 -289.02770508 187.50304687 -289.55712891 188.27734375 C-296.39495754 198.31846016 -302.8611376 208.51872525 -309 219 C-309.60328125 220.00160156 -310.2065625 221.00320313 -310.828125 222.03515625 C-317.6392679 233.43308232 -323.32367118 245.35893114 -328.8125 257.4375 C-329.18552246 258.25347656 -329.55854492 259.06945312 -329.94287109 259.91015625 C-331.98819715 264.46645629 -333.70500477 269.01386501 -335.22631836 273.76855469 C-336.29916683 276.86285415 -337.65733694 279.80138172 -339.01367188 282.77978516 C-357.39659063 324.15955326 -363.66072902 371.78912992 -363.20599365 416.59899902 C-363.17452516 420.04640854 -363.16144172 423.49389258 -363.14648438 426.94140625 C-363.11395439 433.62778601 -363.06418631 440.3138529 -363 447 C-365.65745311 444.34254689 -366.27408658 441.38873968 -367.3125 437.875 C-367.75614037 436.40874215 -368.20016092 434.94259929 -368.64453125 433.4765625 C-368.86963379 432.72793945 -369.09473633 431.97931641 -369.32666016 431.20800781 C-369.95120701 429.16000139 -370.59945058 427.1220102 -371.26171875 425.0859375 C-376.68730966 408.35649839 -380.770393 391.45480819 -383 374 C-383.17063965 372.74832031 -383.3412793 371.49664063 -383.51708984 370.20703125 C-384.9831425 358.85699349 -385.31007067 347.63388572 -385.26074219 336.19726562 C-385.25006092 333.26671424 -385.26068753 330.33678252 -385.2734375 327.40625 C-385.28762023 310.02322111 -384.43255332 292.59729818 -380.75 275.5625 C-380.53601563 274.53592285 -380.32203125 273.5093457 -380.1015625 272.45166016 C-367.73945274 214.43322406 -341.45963228 161.38705149 -302 117 C-300.69482422 115.52660156 -300.69482422 115.52660156 -299.36328125 114.0234375 C-289.16724893 102.71483364 -278.61436911 91.47477932 -266.6171875 82.05859375 C-263.80042107 79.84301776 -261.09504877 77.52054996 -258.375 75.1875 C-186.70971556 15.51254629 -91.82728566 -9.17440334 0 0 Z " fill="#12A278" transform="translate(669,218)"/>
<path d="M0 0 C0.33 0 0.66 0 1 0 C4.57199436 36.57492036 0.09642066 72.790289 -10 108 C-10.23928223 108.83756836 -10.47856445 109.67513672 -10.72509766 110.53808594 C-11.38552277 112.82173014 -12.0618115 115.09958415 -12.75 117.375 C-12.94843506 118.04144531 -13.14687012 118.70789063 -13.35131836 119.39453125 C-13.83995854 120.95015083 -14.41209511 122.4791156 -15 124 C-15.99 124.495 -15.99 124.495 -17 125 C-16.47352934 117.23455778 -14.4024239 110.37819513 -12 103 C-10.54524735 98.57845127 -10.54524735 98.57845127 -10 94 C-9.34 94 -8.68 94 -8 94 C-8.2784375 93.13375 -8.2784375 93.13375 -8.5625 92.25 C-9.05714113 89.70613133 -8.6721495 88.47799115 -8 86 C-7.68051583 84.39720968 -7.36841753 82.79293496 -7.0625 81.1875 C-6.49496407 78.26934884 -5.86355295 75.58263255 -4.9375 72.75 C-3.71350011 67.85400045 -3.50801144 63.04160738 -3.24609375 58.01171875 C-3 55 -3 55 -2 53 C-1.73875633 50.41078497 -1.53315177 47.84554964 -1.375 45.25 C-1.3234375 44.54617188 -1.271875 43.84234375 -1.21875 43.1171875 C-0.95275899 38.90827094 -1.12348299 35.16018523 -2 31 C-2.66 31.66 -3.32 32.32 -4 33 C-3.45276317 29.62537285 -2.9451 27.91765 -1 25 C-0.63201307 22.28924456 -0.63201307 22.28924456 -0.5859375 19.23828125 C-0.54726563 18.12001953 -0.50859375 17.00175781 -0.46875 15.84960938 C-0.4378125 14.68236328 -0.406875 13.51511719 -0.375 12.3125 C-0.33632813 11.13365234 -0.29765625 9.95480469 -0.2578125 8.74023438 C-0.16345609 5.82698023 -0.07786839 2.91373393 0 0 Z " fill="#168659" transform="translate(951,572)"/>
<path d="M0 0 C1.49577072 -0.00300613 1.49577072 -0.00300613 3.02175903 -0.006073 C18.31980983 -0.01360527 33.20483357 0.65004355 48.3125 3.25 C50.10880859 3.54583984 50.10880859 3.54583984 51.94140625 3.84765625 C52.72386719 3.98042969 53.50632812 4.11320312 54.3125 4.25 C50.67428302 6.57845886 47.55221058 6.48553948 43.3125 6.25 C42.3225 5.755 42.3225 5.755 41.3125 5.25 C38.53809288 5.04126718 35.77823236 4.87533379 33 4.75 C31.48291185 4.68051505 29.96597284 4.6076807 28.44921875 4.53125 C27.43927856 4.48581055 27.43927856 4.48581055 26.40893555 4.43945312 C24.3125 4.25 24.3125 4.25 21.96655273 3.74291992 C16.29843888 2.69021807 10.43741447 3.0549238 4.6875 3.0625 C3.64322342 3.06240936 3.64322342 3.06240936 2.57785034 3.06231689 C-8.62572043 3.07617971 -19.58808046 3.70680737 -30.6875 5.25 C-32.78133915 5.52300404 -34.87584533 5.79011013 -36.97070312 6.05517578 C-38.93676572 6.3044816 -40.90199454 6.56033565 -42.8671875 6.81640625 C-47.93518293 7.39160818 -52.99388069 7.67644332 -58.08984375 7.90625 C-59.37568359 8.07640625 -59.37568359 8.07640625 -60.6875 8.25 C-61.0175 8.91 -61.3475 9.57 -61.6875 10.25 C-63.83203125 10.69921875 -63.83203125 10.69921875 -66.5 10.9375 C-67.37269531 11.02386719 -68.24539063 11.11023438 -69.14453125 11.19921875 C-71.55794965 11.24741297 -73.39486498 10.9607703 -75.6875 10.25 C-63.73800445 6.23120722 -51.53902178 4.47358625 -39.10083008 2.66723633 C-36.55540002 2.28929253 -36.55540002 2.28929253 -33.6875 1.25 C-22.58568909 -0.3343563 -11.18783212 0.01090757 0 0 Z " fill="#10B57F" transform="translate(650.6875,285.75)"/>
<path d="M0 0 C1 3 1 3 0.06298828 5.41333008 C-0.67588623 6.82714966 -0.67588623 6.82714966 -1.4296875 8.26953125 C-1.97318848 9.31633057 -2.51668945 10.36312988 -3.07666016 11.44165039 C-3.6701123 12.55403076 -4.26356445 13.66641113 -4.875 14.8125 C-5.47489746 15.94872803 -6.07479492 17.08495605 -6.69287109 18.25561523 C-11.07705679 26.4725869 -15.71875319 34.32398093 -21 42 C-21.96468716 43.44063986 -22.92815784 44.8820948 -23.890625 46.32421875 C-24.8843194 47.80021848 -25.87909543 49.27549064 -26.875 50.75 C-27.33986816 51.44295166 -27.80473633 52.13590332 -28.28369141 52.84985352 C-30.34994773 55.86676933 -31.92499541 57.94999694 -35 60 C-35 59.01 -35 58.02 -35 57 C-34.443125 56.46375 -33.88625 55.9275 -33.3125 55.375 C-30.0571545 52.03167219 -28.14517237 48.11451094 -26 44 C-25.34 44 -24.68 44 -24 44 C-24 43.01 -24 42.02 -24 41 C-23.34 41 -22.68 41 -22 41 C-21.731875 39.906875 -21.46375 38.81375 -21.1875 37.6875 C-20.07587544 34.2356132 -19.58284654 33.24595351 -17 31 C-16.67 30.01 -16.34 29.02 -16 28 C-15.34 28 -14.68 28 -14 28 C-13.72414063 27.29488281 -13.44828125 26.58976563 -13.1640625 25.86328125 C-11.97316845 22.9340016 -10.69124864 20.06246414 -9.375 17.1875 C-8.70597656 15.72376953 -8.70597656 15.72376953 -8.0234375 14.23046875 C-7.68570313 13.49441406 -7.34796875 12.75835938 -7 12 C-6.34 12 -5.68 12 -5 12 C-4.80664062 11.21753906 -4.61328125 10.43507813 -4.4140625 9.62890625 C-4.15367187 8.61699219 -3.89328125 7.60507812 -3.625 6.5625 C-3.24214844 5.04849609 -3.24214844 5.04849609 -2.8515625 3.50390625 C-2 1 -2 1 0 0 Z " fill="#168258" transform="translate(921,727)"/>
<path d="M0 0 C0 0.33 0 0.66 0 1 C-1.38505737 1.06731323 -1.38505737 1.06731323 -2.7980957 1.13598633 C-6.22611804 1.30929754 -9.65297333 1.49520899 -13.07983398 1.68969727 C-14.5626372 1.7712555 -16.04572553 1.84779238 -17.52905273 1.91918945 C-19.6622465 2.02274255 -21.79376016 2.14436204 -23.92578125 2.26953125 C-25.85031128 2.37164917 -25.85031128 2.37164917 -27.8137207 2.47583008 C-31.23654431 3.03891354 -31.81706447 3.52100409 -34 6 C-35.88183594 6.41650391 -35.88183594 6.41650391 -37.984375 6.4765625 C-38.75523437 6.5075 -39.52609375 6.5384375 -40.3203125 6.5703125 C-41.12210938 6.58835937 -41.92390625 6.60640625 -42.75 6.625 C-50.92120563 6.85985439 -50.92120563 6.85985439 -59 8 C-59.33 8.66 -59.66 9.32 -60 10 C-62.14453125 10.44921875 -62.14453125 10.44921875 -64.8125 10.6875 C-65.68519531 10.77386719 -66.55789063 10.86023438 -67.45703125 10.94921875 C-69.87044965 10.99741297 -71.70736498 10.7107703 -74 10 C-62.05050445 5.98120722 -49.85152178 4.22358625 -37.41333008 2.41723633 C-34.86790002 2.03929253 -34.86790002 2.03929253 -32 1 C-21.4281292 -0.51026726 -10.64878685 -0.09470265 0 0 Z " fill="#41C59D" transform="translate(649,286)"/>
<path d="M0 0 C5.86608292 0.69289741 11.67739587 1.57151933 17.5 2.5625 C18.32242188 2.70107422 19.14484375 2.83964844 19.9921875 2.98242188 C21.99504541 3.32011303 23.99755959 3.65984185 26 4 C24.68 4.99 23.36 5.98 22 7 C23.98 7.66 25.96 8.32 28 9 C28 9.66 28 10.32 28 11 C18.1043235 8.75561976 8.9837274 5.72827758 0 1 C0 0.67 0 0.34 0 0 Z " fill="#259F73" transform="translate(533,957)"/>
<path d="M0 0 C0.66 0.33 1.32 0.66 2 1 C-5.06430864 6.71708108 -12.66253785 11.23527679 -20.5625 15.6875 C-21.53131104 16.23365967 -22.50012207 16.77981934 -23.49829102 17.3425293 C-26.32092287 18.91687799 -29.15548251 20.46558202 -32 22 C-32.93569824 22.50869629 -33.87139648 23.01739258 -34.83544922 23.54150391 C-36.16793701 24.24218994 -36.16793701 24.24218994 -37.52734375 24.95703125 C-38.3174585 25.37573486 -39.10757324 25.79443848 -39.92163086 26.22583008 C-42 27 -42 27 -45 26 C-42.25255007 24.45375647 -39.50202015 22.91309442 -36.75 21.375 C-35.92459717 20.91351562 -35.09919434 20.45203125 -34.2487793 19.9765625 C-29.82411558 17.51798436 -25.38720605 15.17125966 -20.8125 13 C-13.41897132 9.40202402 -6.74875039 4.6651198 0 0 Z " fill="#168B61" transform="translate(815,853)"/>
<path d="M0 0 C4.76394335 7.14591503 5.42706505 16.60105402 5 25 C3 22 3 22 2 19 C1.67 21.31 1.34 23.62 1 26 C0.67 26 0.34 26 0 26 C-1.13501284 17.34552711 -1.86073319 8.60589098 0 0 Z " fill="#25A374" transform="translate(1003,560)"/>
<path d="M0 0 C0.33 0 0.66 0 1 0 C1.33 13.53 1.66 27.06 2 41 C-1.64927898 37.35072102 -2.91585183 32.57076592 -3.1875 27.5 C-3.0946875 26.2625 -3.0946875 26.2625 -3 25 C-2.01 25 -1.02 25 0 25 C0 16.75 0 8.5 0 0 Z " fill="#28A073" transform="translate(304,624)"/>
<path d="M0 0 C0.99 0.33 1.98 0.66 3 1 C5.00606445 1.09474373 7.01513808 1.13072208 9.0234375 1.1328125 C10.80234375 1.13474609 10.80234375 1.13474609 12.6171875 1.13671875 C13.85726562 1.13285156 15.09734375 1.12898437 16.375 1.125 C17.60734375 1.12886719 18.8396875 1.13273438 20.109375 1.13671875 C21.29789063 1.13542969 22.48640625 1.13414062 23.7109375 1.1328125 C24.79681152 1.13168457 25.88268555 1.13055664 27.00146484 1.12939453 C29.78640763 1.00921706 32.28670442 0.60824423 35 0 C39.29721562 -0.33842541 42.28405881 -0.47729413 46 2 C43.15686669 2.80974903 40.64297035 3.12241859 37.69042969 3.11352539 C36.84986023 3.11344986 36.00929077 3.11337433 35.14324951 3.11329651 C33.79616913 3.10555458 33.79616913 3.10555458 32.421875 3.09765625 C31.4953009 3.0962413 30.56872681 3.09482635 29.61407471 3.09336853 C26.65935008 3.08777824 23.70470167 3.0752275 20.75 3.0625 C18.74479276 3.05748375 16.73958433 3.05292106 14.734375 3.04882812 C9.82288737 3.03781199 4.9114566 3.020554 0 3 C0 2.01 0 1.02 0 0 Z " fill="#04855C" transform="translate(634,903)"/>
<path d="M0 0 C-6.64387462 3.54843303 -13.34763255 6.67605985 -20.375 9.375 C-21.37273438 9.76872803 -21.37273438 9.76872803 -22.390625 10.17041016 C-26.40111665 11.67132458 -29.72624968 12.27785993 -34 12 C-31.43302955 10.28868636 -29.51167524 9.35680942 -26.65625 8.34375 C-25.82222656 8.04339844 -24.98820313 7.74304688 -24.12890625 7.43359375 C-22.37630208 6.81119792 -20.62369792 6.18880208 -18.87109375 5.56640625 C-18.03707031 5.26605469 -17.20304688 4.96570313 -16.34375 4.65625 C-15.58255859 4.38619141 -14.82136719 4.11613281 -14.03710938 3.83789062 C-11.74970853 2.97505169 -11.74970853 2.97505169 -9 1 C-2.4 -1.2 -2.4 -1.2 0 0 Z " fill="#12885F" transform="translate(769,881)"/>
<path d="M0 0 C0.33 0.99 0.66 1.98 1 3 C-0.1171875 4.7265625 -0.1171875 4.7265625 -1.875 6.625 C-2.83986328 7.66720703 -2.83986328 7.66720703 -3.82421875 8.73046875 C-4.54222656 9.47941406 -5.26023437 10.22835937 -6 11 C-6.76957031 11.82113281 -7.53914062 12.64226563 -8.33203125 13.48828125 C-15.01059444 20.4326579 -15.01059444 20.4326579 -19 21 C-14.45326453 15.47018659 -9.50318104 10.45393118 -4.390625 5.453125 C-1.89727164 3.04464302 -1.89727164 3.04464302 0 0 Z " fill="#229D77" transform="translate(892,832)"/>
<path d="M0 0 C-0.66 0 -1.32 0 -2 0 C-2 0.66 -2 1.32 -2 2 C-14.27521331 4.90097815 -26.52569513 3.77173227 -39 3 C-39 2.67 -39 2.34 -39 2 C-37.88927124 1.970271 -37.88927124 1.970271 -36.75610352 1.93994141 C-33.35791589 1.84390394 -29.9602779 1.73454684 -26.5625 1.625 C-25.39783203 1.5940625 -24.23316406 1.563125 -23.03320312 1.53125 C-17.10474229 1.33085132 -11.59925088 0.96108045 -5.88256836 -0.68212891 C-3.65585384 -1.05810897 -2.13461252 -0.67602493 0 0 Z " fill="#41B990" transform="translate(678,711)"/>
<path d="M0 0 C6.96817509 1.82358625 13.94676446 3.98896716 20 8 C20.33 8.99 20.66 9.98 21 11 C16.34258409 9.56915026 12.03147418 7.68340658 7.6875 5.5 C7.05521484 5.19191406 6.42292969 4.88382813 5.77148438 4.56640625 C1.12210379 2.24420759 1.12210379 2.24420759 0 0 Z " fill="#2F9C77" transform="translate(517,873)"/>
<path d="M0 0 C6.70778622 0.77397533 13.34574301 1.85768588 20 3 C18.02 3.99 18.02 3.99 16 5 C15.67 4.34 15.34 3.68 15 3 C14.01 3.33 13.02 3.66 12 4 C12.33 4.66 12.66 5.32 13 6 C11.39253944 5.57476184 9.78910164 5.13429874 8.1875 4.6875 C7.29417969 4.44386719 6.40085937 4.20023438 5.48046875 3.94921875 C2.94752262 2.9799181 1.7283504 2.04990396 0 0 Z " fill="#50AC88" transform="translate(533,957)"/>
<path d="M0 0 C5.9129304 0.64270983 11.34244531 2.19003784 17 4 C17 4.33 17 4.66 17 5 C13.04 5 9.08 5 5 5 C5 4.34 5 3.68 5 3 C3.35 3 1.7 3 0 3 C0 2.01 0 1.02 0 0 Z " fill="#21B280" transform="translate(717,228)"/>
<path d="M0 0 C0 0.99 0 1.98 0 3 C-0.99 3.33 -1.98 3.66 -3 4 C-3.67573672 5.32875961 -4.34104032 6.66284094 -5 8 C-6.9453125 9.921875 -6.9453125 9.921875 -9.125 11.75 C-10.21167969 12.67039062 -10.21167969 12.67039062 -11.3203125 13.609375 C-11.87460937 14.06828125 -12.42890625 14.5271875 -13 15 C-13.66 14.34 -14.32 13.68 -15 13 C-13.2519799 11.3936298 -11.50168356 9.78986703 -9.75 8.1875 C-9.25886719 7.73568359 -8.76773437 7.28386719 -8.26171875 6.81835938 C-5.60492352 4.39181973 -2.92534924 2.09650029 0 0 Z " fill="#1CBA8B" transform="translate(466,352)"/>
<path d="M0 0 C-0.63808594 0.12117188 -1.27617188 0.24234375 -1.93359375 0.3671875 C-2.75988281 0.53476562 -3.58617187 0.70234375 -4.4375 0.875 C-5.26121094 1.03742188 -6.08492187 1.19984375 -6.93359375 1.3671875 C-7.61550781 1.57601563 -8.29742188 1.78484375 -9 2 C-9.33 2.66 -9.66 3.32 -10 4 C-12.14453125 4.44921875 -12.14453125 4.44921875 -14.8125 4.6875 C-15.68519531 4.77386719 -16.55789063 4.86023438 -17.45703125 4.94921875 C-19.87044965 4.99741297 -21.70736498 4.7107703 -24 4 C-21.79290017 3.34996375 -19.58426108 2.70515255 -17.375 2.0625 C-16.14523437 1.70285156 -14.91546875 1.34320313 -13.6484375 0.97265625 C-4.35080645 -1.50604839 -4.35080645 -1.50604839 0 0 Z " fill="#4ECAA3" transform="translate(599,292)"/>
<path d="M0 0 C0.66 0.33 1.32 0.66 2 1 C-1.61251516 5.56048012 -4.98797445 9.01665146 -10 12 C-10.66 11.34 -11.32 10.68 -12 10 C-8.04 6.7 -4.08 3.4 0 0 Z " fill="#1EB084" transform="translate(413,291)"/>
<path d="M0 0 C1.10859375 0.00322266 2.2171875 0.00644531 3.359375 0.00976562 C4.50148438 0.01814453 5.64359375 0.02652344 6.8203125 0.03515625 C8.56828125 0.04192383 8.56828125 0.04192383 10.3515625 0.04882812 C13.21619895 0.06056844 16.08072883 0.07699055 18.9453125 0.09765625 C18.9453125 0.42765625 18.9453125 0.75765625 18.9453125 1.09765625 C17.99277588 1.13524048 17.99277588 1.13524048 17.02099609 1.17358398 C14.12059708 1.29022414 11.22046901 1.41264018 8.3203125 1.53515625 C7.32128906 1.57447266 6.32226562 1.61378906 5.29296875 1.65429688 C1.25395622 1.82816165 -2.59841817 2.01216898 -6.578125 2.7578125 C-9.0546875 3.09765625 -9.0546875 3.09765625 -12.0546875 1.09765625 C-7.9794241 0.3298915 -4.14463303 -0.02136409 0 0 Z " fill="#23BB8A" transform="translate(655.0546875,285.90234375)"/>
<path d="M0 0 C0.639375 0.165 1.27875 0.33 1.9375 0.5 C1.9375 0.83 1.9375 1.16 1.9375 1.5 C-0.29100277 1.83774332 -2.52033467 2.1700187 -4.75 2.5 C-6.61205078 2.7784375 -6.61205078 2.7784375 -8.51171875 3.0625 C-11.42136371 3.42100411 -14.13950022 3.58942256 -17.0625 3.5 C-11.91620164 -1.81230799 -6.82114656 -1.11365658 0 0 Z " fill="#2D9875" transform="translate(693.0625,902.5)"/>
<path d="M0 0 C-3.09234528 0.89893758 -5.90797357 1.16349234 -9.125 1.1875 C-10.42824219 1.20876953 -10.42824219 1.20876953 -11.7578125 1.23046875 C-14 1 -14 1 -16 -1 C-10.49379367 -2.37655158 -4.86504849 -3.24336566 0 0 Z " fill="#148D65" transform="translate(680,905)"/>
<path d="M0 0 C5.95507399 0.3916035 10.62819824 1.37124595 16 4 C16 4.33 16 4.66 16 5 C10.01488629 4.65697965 5.24882694 4.17692157 0 1 C0 0.67 0 0.34 0 0 Z " fill="#189064" transform="translate(561,891)"/>
<path d="M0 0 C-2.62181825 0.72264239 -5.24623992 1.42849092 -7.875 2.125 C-8.99455078 2.43630859 -8.99455078 2.43630859 -10.13671875 2.75390625 C-12.06990779 3.25897366 -14.03488717 3.63855219 -16 4 C-16.66 3.34 -17.32 2.68 -18 2 C-5.89076257 -1.70690942 -5.89076257 -1.70690942 0 0 Z " fill="#1EB989" transform="translate(583,297)"/>
<path d="M0 0 C0.33 1.32 0.66 2.64 1 4 C-0.87109375 6.359375 -0.87109375 6.359375 -3.4375 8.75 C-4.70400391 9.94882812 -4.70400391 9.94882812 -5.99609375 11.171875 C-6.65738281 11.77515625 -7.31867188 12.3784375 -8 13 C-8.66 12.67 -9.32 12.34 -10 12 C-6.7 8.04 -3.4 4.08 0 0 Z " fill="#19B78B" transform="translate(426,390)"/>
<path d="M0 0 C0 0.66 0 1.32 0 2 C0.66 2.33 1.32 2.66 2 3 C1.67 3.33 1.34 3.66 1 4 C-0.8125 3.94921875 -0.8125 3.94921875 -3 3.6875 C-3.721875 3.60886719 -4.44375 3.53023437 -5.1875 3.44921875 C-6.0846875 3.22685547 -6.0846875 3.22685547 -7 3 C-7.33 2.34 -7.66 1.68 -8 1 C-5.29120665 -0.35439668 -2.99066732 -0.06501451 0 0 Z " fill="#0A9F6A" transform="translate(562,962)"/>
<path d="M0 0 C-0.125 1.875 -0.125 1.875 -1 4 C-4.87965756 5.71426729 -8.81656731 6.40236676 -13 7 C-4.25 0 -4.25 0 0 0 Z " fill="#2AA179" transform="translate(790,915)"/>
<path d="M0 0 C1.32 0.99 2.64 1.98 4 3 C-1.61 2.34 -7.22 1.68 -13 1 C-13 0.67 -13 0.34 -13 0 C-8.62389593 -1.23077927 -4.37312713 -1.21717256 0 0 Z " fill="#2F9974" transform="translate(613,902)"/>
<path d="M0 0 C1 3 1 3 -0.21484375 5.91796875 C-0.78332031 6.99691406 -1.35179687 8.07585938 -1.9375 9.1875 C-2.50339844 10.27417969 -3.06929687 11.36085938 -3.65234375 12.48046875 C-4.09707031 13.31191406 -4.54179688 14.14335938 -5 15 C-6 13 -6 13 -5.29296875 10.72265625 C-4.74576172 9.40587891 -4.74576172 9.40587891 -4.1875 8.0625 C-3.83042969 7.18722656 -3.47335937 6.31195312 -3.10546875 5.41015625 C-2 3 -2 3 0 0 Z " fill="#0E7D51" transform="translate(928,711)"/>
<path d="M0 0 C0.66 0.33 1.32 0.66 2 1 C0 5 -2 9 -4 13 C-4.66 12.34 -5.32 11.68 -6 11 C-4.02 7.37 -2.04 3.74 0 0 Z " fill="#16B28A" transform="translate(393,435)"/>
<path d="M0 0 C0.66 0.66 1.32 1.32 2 2 C-1.3 5.3 -4.6 8.6 -8 12 C-8.66 11.67 -9.32 11.34 -10 11 C-8.88200014 9.66079162 -7.75538103 8.32877444 -6.625 7 C-5.99851562 6.2575 -5.37203125 5.515 -4.7265625 4.75 C-4.15679687 4.1725 -3.58703125 3.595 -3 3 C-2.34 3 -1.68 3 -1 3 C-0.67 2.01 -0.34 1.02 0 0 Z " fill="#1CB989" transform="translate(442,373)"/>
<path d="M0 0 C3.3 0.33 6.6 0.66 10 1 C10 1.66 10 2.32 10 3 C10.99 3.33 11.98 3.66 13 4 C11.58297487 3.85769192 10.1663904 3.71099254 8.75 3.5625 C7.56664062 3.44068359 7.56664062 3.44068359 6.359375 3.31640625 C4.17635361 3.02365007 2.1226818 2.57935581 0 2 C0 1.34 0 0.68 0 0 Z " fill="#2DA07C" transform="translate(597,977)"/>
<path d="M0 0 C0.33 0.66 0.66 1.32 1 2 C0.07544441 3.508013 -0.8650747 5.00624917 -1.8125 6.5 C-2.33457031 7.3353125 -2.85664063 8.170625 -3.39453125 9.03125 C-3.92433594 9.6809375 -4.45414062 10.330625 -5 11 C-5.99 11 -6.98 11 -8 11 C-5.36 7.37 -2.72 3.74 0 0 Z " fill="#1AB78C" transform="translate(411,409)"/>
<path d="M0 0 C0.33 0 0.66 0 1 0 C1.22142255 1.95689659 1.4267568 3.91561952 1.625 5.875 C1.74101563 6.96554687 1.85703125 8.05609375 1.9765625 9.1796875 C1.98429688 10.11039063 1.99203125 11.04109375 2 12 C1.34 12.66 0.68 13.32 0 14 C-1.39151652 9.20699867 -0.68662689 4.84864218 0 0 Z " fill="#0F8058" transform="translate(948,627)"/>
<path d="M0 0 C0.66 0 1.32 0 2 0 C1.51171875 6.0546875 1.51171875 6.0546875 1 8 C0.01 8.66 -0.98 9.32 -2 10 C-2.22036864 6.14354879 -1.60355101 3.50776784 0 0 Z " fill="#16855D" transform="translate(931,700)"/>
<path d="M0 0 C0.66 0.33 1.32 0.66 2 1 C0.34832443 4.5786304 -1.78286492 7.74820188 -4 11 C-4.66 10.67 -5.32 10.34 -6 10 C-4.02 6.7 -2.04 3.4 0 0 Z " fill="#18B58D" transform="translate(400,424)"/>
<path d="M0 0 C3.21043882 1.38188453 5.04936365 2.92421903 7.25 5.625 C8.03117188 6.57246094 8.03117188 6.57246094 8.828125 7.5390625 C9.40820312 8.26222656 9.40820312 8.26222656 10 9 C7 9 7 9 4.3125 6.625 C2 4 2 4 2 2 C1.34 2 0.68 2 0 2 C0 1.34 0 0.68 0 0 Z " fill="#1FAC7E" transform="translate(728,501)"/>
<path d="M0 0 C1.66611905 -0.042721 3.33382885 -0.04063832 5 0 C5.33 0.33 5.66 0.66 6 1 C7.66617115 1.04063832 9.33388095 1.042721 11 1 C10.01 2.485 10.01 2.485 9 4 C3.46153846 3.38461538 3.46153846 3.38461538 1.125 1.4375 C0.75375 0.963125 0.3825 0.48875 0 0 Z " fill="#0A8F59" transform="translate(543,960)"/>
<path d="M0 0 C1 3 1 3 0.22265625 4.82421875 C-0.8515625 6.54947917 -1.92578125 8.27473958 -3 10 C-4 8 -4 8 -3.1875 4.4375 C-2 1 -2 1 0 0 Z " fill="#107F54" transform="translate(921,727)"/>
<path d="M0 0 C0.33 0 0.66 0 1 0 C1.31563182 5.26053037 0.66590937 8.44573816 -2 13 C-3.18771723 9.57056481 -2.80226223 7.62215325 -1.5625 4.25 C-1.27503906 3.45078125 -0.98757813 2.6515625 -0.69140625 1.828125 C-0.46324219 1.22484375 -0.23507812 0.6215625 0 0 Z " fill="#B7E3D5" transform="translate(323,517)"/>
<path d="M0 0 C0.66 0.99 1.32 1.98 2 3 C0.68 5.31 -0.64 7.62 -2 10 C-2.66 9.34 -3.32 8.68 -4 8 C-2.68 5.36 -1.36 2.72 0 0 Z " fill="#20B88F" transform="translate(385,449)"/>
<path d="M0 0 C0.66 0.66 1.32 1.32 2 2 C0.35 3.65 -1.3 5.3 -3 7 C-3.99 6.67 -4.98 6.34 -6 6 C-4.02 4.02 -2.04 2.04 0 0 Z " fill="#15AC7E" transform="translate(382,319)"/>
<path d="M0 0 C0.66 0 1.32 0 2 0 C1.4140625 6.15234375 1.4140625 6.15234375 1 8 C0.01 8.495 0.01 8.495 -1 9 C-0.67 6.03 -0.34 3.06 0 0 Z " fill="#0F7A4D" transform="translate(935,688)"/>
<path d="M0 0 C0.66 0 1.32 0 2 0 C3.06775224 1.96466413 4.06553465 3.96855359 5 6 C4.67 6.66 4.34 7.32 4 8 C1.10067643 5.60490662 0.49831724 3.68754757 0 0 Z " fill="#38B78C" transform="translate(919,452)"/>
<path d="M0 0 C0.6875 1.6875 0.6875 1.6875 1 4 C-0.3125 6.75 -0.3125 6.75 -2 9 C-2.66 9 -3.32 9 -4 9 C-2.80100302 5.9168649 -1.52299523 2.93720508 0 0 Z " fill="#30AD87" transform="translate(322,399)"/>
<path d="M0 0 C0.6875 1.6875 0.6875 1.6875 1 4 C-0.3125 6.75 -0.3125 6.75 -2 9 C-2.66 9 -3.32 9 -4 9 C-2.94124926 5.59687262 -1.99097846 2.98646769 0 0 Z " fill="#2DAD88" transform="translate(327,390)"/>
<path d="M0 0 C-0.66 0 -1.32 0 -2 0 C-2 0.66 -2 1.32 -2 2 C-5.3 2 -8.6 2 -12 2 C-7.89783794 -0.73477471 -4.73617773 -1.57872591 0 0 Z " fill="#54B591" transform="translate(686,956)"/>
<path d="M0 0 C0.99 0.33 1.98 0.66 3 1 C0.64031256 3.09749995 -0.54616994 3.96905704 -3.75 4.1875 C-4.86375 4.0946875 -4.86375 4.0946875 -6 4 C-4.03617993 2.49440461 -2.21736634 1.10868317 0 0 Z " fill="#2FA37A" transform="translate(775,922)"/>
<path d="M0 0 C0.66 0.99 1.32 1.98 2 3 C1.01 4.98 0.02 6.96 -1 9 C-1.66 9 -2.32 9 -3 9 C-2.01 6.03 -1.02 3.06 0 0 Z " fill="#32A07E" transform="translate(966,718)"/>
<path d="M0 0 C0.99 0.33 1.98 0.66 3 1 C1.35 2.65 -0.3 4.3 -2 6 C-2.33 5.01 -2.66 4.02 -3 3 C-2.34 3 -1.68 3 -1 3 C-0.67 2.01 -0.34 1.02 0 0 Z " fill="#EAF6F2" transform="translate(734,672)"/>
</svg>
